<mxfile host="app.diagrams.net" modified="2023-09-27T13:36:13.143Z" agent="Mozilla/5.0 (Windows NT 10.0; Win64; x64) AppleWebKit/537.36 (KHTML, like Gecko) Chrome/116.0.0.0 Safari/537.36" etag="yJCTTQK6knAzRRR6q21l" version="21.8.2" type="device">
  <diagram name="Página-1" id="K-5_rDBJIlARaP2pHcms">
    <mxGraphModel dx="1050" dy="542" grid="1" gridSize="10" guides="1" tooltips="1" connect="1" arrows="1" fold="1" page="1" pageScale="1" pageWidth="827" pageHeight="1169" math="0" shadow="0">
      <root>
        <mxCell id="0" />
        <mxCell id="1" parent="0" />
        <mxCell id="e8MdTCqrv2B_cEdSrUxO-1" value="Inputs:&lt;br&gt;Ordenadores, base de datos" style="rounded=0;whiteSpace=wrap;html=1;fillColor=#d5e8d4;strokeColor=#82b366;" parent="1" vertex="1">
          <mxGeometry x="40" y="40" width="80" height="400" as="geometry" />
        </mxCell>
        <mxCell id="e8MdTCqrv2B_cEdSrUxO-2" value="" style="rounded=0;whiteSpace=wrap;html=1;fillColor=#fff2cc;strokeColor=#d6b656;" parent="1" vertex="1">
          <mxGeometry x="130" y="40" width="430" height="400" as="geometry" />
        </mxCell>
        <mxCell id="e8MdTCqrv2B_cEdSrUxO-4" value="&lt;b&gt;ROLES&lt;/b&gt;:&amp;nbsp; &amp;nbsp; &amp;nbsp; &amp;nbsp; &amp;nbsp; &amp;nbsp; &amp;nbsp; &amp;nbsp; &amp;nbsp; &amp;nbsp; &amp;nbsp; &amp;nbsp; &amp;nbsp; &amp;nbsp; &amp;nbsp; &amp;nbsp; &amp;nbsp; &amp;nbsp; &amp;nbsp; &amp;nbsp; &amp;nbsp; &amp;nbsp; &amp;nbsp; &amp;nbsp; &amp;nbsp; &amp;nbsp; &amp;nbsp;" style="text;html=1;strokeColor=none;fillColor=none;align=center;verticalAlign=middle;whiteSpace=wrap;rounded=0;" parent="1" vertex="1">
          <mxGeometry x="150" y="70" width="70" height="30" as="geometry" />
        </mxCell>
        <mxCell id="e8MdTCqrv2B_cEdSrUxO-7" value="Evaluar incidencia" style="rounded=1;whiteSpace=wrap;html=1;" parent="1" vertex="1">
          <mxGeometry x="285" y="110" width="100" height="40" as="geometry" />
        </mxCell>
        <mxCell id="e8MdTCqrv2B_cEdSrUxO-8" value="Buscar respuesta en base datos" style="rounded=1;whiteSpace=wrap;html=1;" parent="1" vertex="1">
          <mxGeometry x="630" y="120" width="120" height="60" as="geometry" />
        </mxCell>
        <mxCell id="e8MdTCqrv2B_cEdSrUxO-10" value="Comunicar usuario" style="rounded=1;whiteSpace=wrap;html=1;" parent="1" vertex="1">
          <mxGeometry x="790" y="100" width="120" height="60" as="geometry" />
        </mxCell>
        <mxCell id="e8MdTCqrv2B_cEdSrUxO-12" value="¿Es compleja?&lt;br&gt;" style="rhombus;whiteSpace=wrap;html=1;" parent="1" vertex="1">
          <mxGeometry x="430" y="90" width="80" height="80" as="geometry" />
        </mxCell>
        <mxCell id="e8MdTCqrv2B_cEdSrUxO-14" value="Recibir incidencia" style="rounded=1;whiteSpace=wrap;html=1;" parent="1" vertex="1">
          <mxGeometry x="140" y="110" width="100" height="40" as="geometry" />
        </mxCell>
        <mxCell id="e8MdTCqrv2B_cEdSrUxO-15" value="Recursos: Departamento de Desarrollo" style="rounded=0;whiteSpace=wrap;html=1;fillColor=#e1d5e7;strokeColor=#9673a6;" parent="1" vertex="1">
          <mxGeometry x="40" y="450" width="1390" height="60" as="geometry" />
        </mxCell>
        <mxCell id="e8MdTCqrv2B_cEdSrUxO-16" value="" style="endArrow=classic;html=1;rounded=0;entryX=0;entryY=0.5;entryDx=0;entryDy=0;" parent="1" target="e8MdTCqrv2B_cEdSrUxO-7" edge="1">
          <mxGeometry width="50" height="50" relative="1" as="geometry">
            <mxPoint x="240" y="130" as="sourcePoint" />
            <mxPoint x="290" y="80" as="targetPoint" />
          </mxGeometry>
        </mxCell>
        <mxCell id="e8MdTCqrv2B_cEdSrUxO-17" value="" style="endArrow=classic;html=1;rounded=0;entryX=0;entryY=0.5;entryDx=0;entryDy=0;exitX=1;exitY=0.5;exitDx=0;exitDy=0;" parent="1" source="e8MdTCqrv2B_cEdSrUxO-7" target="e8MdTCqrv2B_cEdSrUxO-12" edge="1">
          <mxGeometry width="50" height="50" relative="1" as="geometry">
            <mxPoint x="380" y="140" as="sourcePoint" />
            <mxPoint x="430" y="90" as="targetPoint" />
          </mxGeometry>
        </mxCell>
        <mxCell id="e8MdTCqrv2B_cEdSrUxO-18" value="&lt;b&gt;&amp;nbsp; Primer nivel soporte&lt;/b&gt;" style="text;html=1;strokeColor=none;fillColor=none;align=center;verticalAlign=middle;whiteSpace=wrap;rounded=0;" parent="1" vertex="1">
          <mxGeometry x="260" y="50" width="170" height="30" as="geometry" />
        </mxCell>
        <mxCell id="e8MdTCqrv2B_cEdSrUxO-19" value="" style="rounded=0;whiteSpace=wrap;html=1;fillColor=#dae8fc;strokeColor=#6c8ebf;" parent="1" vertex="1">
          <mxGeometry x="560" y="40" width="560" height="400" as="geometry" />
        </mxCell>
        <mxCell id="e8MdTCqrv2B_cEdSrUxO-21" value="" style="endArrow=none;html=1;rounded=0;entryX=0.997;entryY=0.223;entryDx=0;entryDy=0;entryPerimeter=0;" parent="1" target="e8MdTCqrv2B_cEdSrUxO-2" edge="1">
          <mxGeometry width="50" height="50" relative="1" as="geometry">
            <mxPoint x="510" y="130" as="sourcePoint" />
            <mxPoint x="560" y="80" as="targetPoint" />
          </mxGeometry>
        </mxCell>
        <mxCell id="e8MdTCqrv2B_cEdSrUxO-22" value="" style="endArrow=classic;html=1;rounded=0;exitX=-0.004;exitY=0.223;exitDx=0;exitDy=0;exitPerimeter=0;" parent="1" source="e8MdTCqrv2B_cEdSrUxO-19" edge="1">
          <mxGeometry width="50" height="50" relative="1" as="geometry">
            <mxPoint x="560" y="130" as="sourcePoint" />
            <mxPoint x="610" y="129" as="targetPoint" />
          </mxGeometry>
        </mxCell>
        <mxCell id="e8MdTCqrv2B_cEdSrUxO-23" value="NO" style="text;html=1;strokeColor=none;fillColor=none;align=center;verticalAlign=middle;whiteSpace=wrap;rounded=0;" parent="1" vertex="1">
          <mxGeometry x="430" y="180" width="60" height="30" as="geometry" />
        </mxCell>
        <mxCell id="e8MdTCqrv2B_cEdSrUxO-25" value="Buscar respuesta en base datos&lt;br&gt;" style="rounded=1;whiteSpace=wrap;html=1;" parent="1" vertex="1">
          <mxGeometry x="414" y="220" width="120" height="60" as="geometry" />
        </mxCell>
        <mxCell id="e8MdTCqrv2B_cEdSrUxO-29" value="" style="endArrow=classic;html=1;rounded=0;entryX=0.791;entryY=0.45;entryDx=0;entryDy=0;entryPerimeter=0;" parent="1" target="e8MdTCqrv2B_cEdSrUxO-2" edge="1">
          <mxGeometry width="50" height="50" relative="1" as="geometry">
            <mxPoint x="470" y="170" as="sourcePoint" />
            <mxPoint x="520" y="120" as="targetPoint" />
          </mxGeometry>
        </mxCell>
        <mxCell id="e8MdTCqrv2B_cEdSrUxO-30" value="Determinar tareas" style="rounded=1;whiteSpace=wrap;html=1;" parent="1" vertex="1">
          <mxGeometry x="610" y="100" width="120" height="60" as="geometry" />
        </mxCell>
        <mxCell id="e8MdTCqrv2B_cEdSrUxO-31" value="SÍ" style="text;html=1;strokeColor=none;fillColor=none;align=center;verticalAlign=middle;whiteSpace=wrap;rounded=0;" parent="1" vertex="1">
          <mxGeometry x="520" y="100" width="60" height="30" as="geometry" />
        </mxCell>
        <mxCell id="e8MdTCqrv2B_cEdSrUxO-32" value="&lt;b&gt;Personal departamento Desarrollo&lt;/b&gt;" style="text;html=1;strokeColor=none;fillColor=none;align=center;verticalAlign=middle;whiteSpace=wrap;rounded=0;" parent="1" vertex="1">
          <mxGeometry x="760" y="50" width="200" height="30" as="geometry" />
        </mxCell>
        <mxCell id="YCV1o-y9mi9fZgYIoJnW-2" value="Comunicar tareas usuario" style="rounded=1;whiteSpace=wrap;html=1;" parent="1" vertex="1">
          <mxGeometry x="620" y="330" width="120" height="60" as="geometry" />
        </mxCell>
        <mxCell id="YCV1o-y9mi9fZgYIoJnW-4" value="¿Se puede resolver?" style="rhombus;whiteSpace=wrap;html=1;" parent="1" vertex="1">
          <mxGeometry x="820" y="90" width="80" height="80" as="geometry" />
        </mxCell>
        <mxCell id="YCV1o-y9mi9fZgYIoJnW-5" value="" style="endArrow=classic;html=1;rounded=0;entryX=0;entryY=0.5;entryDx=0;entryDy=0;exitX=1;exitY=0.5;exitDx=0;exitDy=0;" parent="1" source="e8MdTCqrv2B_cEdSrUxO-30" target="YCV1o-y9mi9fZgYIoJnW-4" edge="1">
          <mxGeometry width="50" height="50" relative="1" as="geometry">
            <mxPoint x="930" y="140" as="sourcePoint" />
            <mxPoint x="980" y="90" as="targetPoint" />
          </mxGeometry>
        </mxCell>
        <mxCell id="YCV1o-y9mi9fZgYIoJnW-7" value="" style="rounded=0;whiteSpace=wrap;html=1;fillColor=#d5e8d4;strokeColor=#82b366;" parent="1" vertex="1">
          <mxGeometry x="1120" y="40" width="310" height="400" as="geometry" />
        </mxCell>
        <mxCell id="YCV1o-y9mi9fZgYIoJnW-9" value="Negociar indemnización" style="rounded=1;whiteSpace=wrap;html=1;" parent="1" vertex="1">
          <mxGeometry x="1160" y="100" width="120" height="60" as="geometry" />
        </mxCell>
        <mxCell id="YCV1o-y9mi9fZgYIoJnW-11" value="NO" style="text;html=1;strokeColor=none;fillColor=none;align=center;verticalAlign=middle;whiteSpace=wrap;rounded=0;" parent="1" vertex="1">
          <mxGeometry x="930" y="110" width="60" height="30" as="geometry" />
        </mxCell>
        <mxCell id="YCV1o-y9mi9fZgYIoJnW-12" value="&lt;b&gt;Jefe departamento Desarrollo&lt;/b&gt;" style="text;html=1;strokeColor=none;fillColor=none;align=center;verticalAlign=middle;whiteSpace=wrap;rounded=0;" parent="1" vertex="1">
          <mxGeometry x="1185" y="50" width="180" height="30" as="geometry" />
        </mxCell>
        <mxCell id="YCV1o-y9mi9fZgYIoJnW-13" value="" style="endArrow=none;html=1;rounded=0;entryX=0.998;entryY=0.223;entryDx=0;entryDy=0;entryPerimeter=0;" parent="1" target="e8MdTCqrv2B_cEdSrUxO-19" edge="1">
          <mxGeometry width="50" height="50" relative="1" as="geometry">
            <mxPoint x="900" y="130" as="sourcePoint" />
            <mxPoint x="950" y="80" as="targetPoint" />
          </mxGeometry>
        </mxCell>
        <mxCell id="YCV1o-y9mi9fZgYIoJnW-15" value="" style="endArrow=classic;html=1;rounded=0;entryX=0.5;entryY=0;entryDx=0;entryDy=0;" parent="1" target="-lzMgy2tLy97nm2jj77K-1" edge="1">
          <mxGeometry width="50" height="50" relative="1" as="geometry">
            <mxPoint x="860" y="170" as="sourcePoint" />
            <mxPoint x="910" y="120" as="targetPoint" />
          </mxGeometry>
        </mxCell>
        <mxCell id="YCV1o-y9mi9fZgYIoJnW-16" value="SÍ" style="text;html=1;strokeColor=none;fillColor=none;align=center;verticalAlign=middle;whiteSpace=wrap;rounded=0;" parent="1" vertex="1">
          <mxGeometry x="840" y="180" width="60" height="30" as="geometry" />
        </mxCell>
        <mxCell id="YVqT7aEPNEY2TlfbTJ8u-1" value="Añadir respuesta base de datos" style="rounded=1;whiteSpace=wrap;html=1;" parent="1" vertex="1">
          <mxGeometry x="620" y="220" width="120" height="60" as="geometry" />
        </mxCell>
        <mxCell id="-lzMgy2tLy97nm2jj77K-1" value="Gestionar incidencia" style="rounded=1;whiteSpace=wrap;html=1;" parent="1" vertex="1">
          <mxGeometry x="800" y="220" width="120" height="60" as="geometry" />
        </mxCell>
        <mxCell id="-lzMgy2tLy97nm2jj77K-2" value="¿Se ha finalizado en plazo?" style="rhombus;whiteSpace=wrap;html=1;" parent="1" vertex="1">
          <mxGeometry x="820" y="320" width="80" height="80" as="geometry" />
        </mxCell>
        <mxCell id="-lzMgy2tLy97nm2jj77K-3" value="" style="endArrow=classic;html=1;rounded=0;entryX=0.5;entryY=0;entryDx=0;entryDy=0;" parent="1" target="-lzMgy2tLy97nm2jj77K-2" edge="1">
          <mxGeometry width="50" height="50" relative="1" as="geometry">
            <mxPoint x="860" y="280" as="sourcePoint" />
            <mxPoint x="910" y="230" as="targetPoint" />
          </mxGeometry>
        </mxCell>
        <mxCell id="-lzMgy2tLy97nm2jj77K-6" value="NO" style="text;html=1;strokeColor=none;fillColor=none;align=center;verticalAlign=middle;whiteSpace=wrap;rounded=0;" parent="1" vertex="1">
          <mxGeometry x="940" y="340" width="60" height="30" as="geometry" />
        </mxCell>
        <mxCell id="-lzMgy2tLy97nm2jj77K-7" value="" style="endArrow=classic;html=1;rounded=0;entryX=1;entryY=0.5;entryDx=0;entryDy=0;" parent="1" target="YCV1o-y9mi9fZgYIoJnW-2" edge="1">
          <mxGeometry width="50" height="50" relative="1" as="geometry">
            <mxPoint x="820" y="360" as="sourcePoint" />
            <mxPoint x="870" y="310" as="targetPoint" />
          </mxGeometry>
        </mxCell>
        <mxCell id="-lzMgy2tLy97nm2jj77K-8" value="" style="endArrow=classic;html=1;rounded=0;entryX=0.5;entryY=1;entryDx=0;entryDy=0;exitX=0.501;exitY=0;exitDx=0;exitDy=0;exitPerimeter=0;" parent="1" source="YCV1o-y9mi9fZgYIoJnW-2" target="YVqT7aEPNEY2TlfbTJ8u-1" edge="1">
          <mxGeometry width="50" height="50" relative="1" as="geometry">
            <mxPoint x="670" y="330" as="sourcePoint" />
            <mxPoint x="720" y="280" as="targetPoint" />
          </mxGeometry>
        </mxCell>
        <mxCell id="-lzMgy2tLy97nm2jj77K-9" value="SÍ" style="text;html=1;strokeColor=none;fillColor=none;align=center;verticalAlign=middle;whiteSpace=wrap;rounded=0;" parent="1" vertex="1">
          <mxGeometry x="750" y="340" width="60" height="30" as="geometry" />
        </mxCell>
        <mxCell id="-lzMgy2tLy97nm2jj77K-10" value="Finalizar incidencia" style="rounded=1;whiteSpace=wrap;html=1;" parent="1" vertex="1">
          <mxGeometry x="970" y="250" width="120" height="60" as="geometry" />
        </mxCell>
        <mxCell id="-lzMgy2tLy97nm2jj77K-11" value="Cerrar incidencia" style="rounded=1;whiteSpace=wrap;html=1;" parent="1" vertex="1">
          <mxGeometry x="970" y="150" width="120" height="60" as="geometry" />
        </mxCell>
        <mxCell id="-lzMgy2tLy97nm2jj77K-22" value="" style="endArrow=none;html=1;rounded=0;entryX=-0.004;entryY=0.801;entryDx=0;entryDy=0;entryPerimeter=0;" parent="1" target="YCV1o-y9mi9fZgYIoJnW-7" edge="1">
          <mxGeometry width="50" height="50" relative="1" as="geometry">
            <mxPoint x="900" y="360" as="sourcePoint" />
            <mxPoint x="950" y="310" as="targetPoint" />
          </mxGeometry>
        </mxCell>
        <mxCell id="-lzMgy2tLy97nm2jj77K-23" value="" style="endArrow=classic;html=1;rounded=0;entryX=0.323;entryY=0.3;entryDx=0;entryDy=0;entryPerimeter=0;" parent="1" target="YCV1o-y9mi9fZgYIoJnW-7" edge="1">
          <mxGeometry width="50" height="50" relative="1" as="geometry">
            <mxPoint x="1120" y="360" as="sourcePoint" />
            <mxPoint x="1170" y="310" as="targetPoint" />
            <Array as="points">
              <mxPoint x="1220" y="360" />
            </Array>
          </mxGeometry>
        </mxCell>
        <mxCell id="-lzMgy2tLy97nm2jj77K-24" value="" style="endArrow=classic;html=1;rounded=0;entryX=0.5;entryY=1;entryDx=0;entryDy=0;" parent="1" target="-lzMgy2tLy97nm2jj77K-10" edge="1">
          <mxGeometry width="50" height="50" relative="1" as="geometry">
            <mxPoint x="1030" y="360" as="sourcePoint" />
            <mxPoint x="1070" y="310" as="targetPoint" />
          </mxGeometry>
        </mxCell>
        <mxCell id="-lzMgy2tLy97nm2jj77K-25" value="" style="endArrow=classic;html=1;rounded=0;entryX=0.5;entryY=1;entryDx=0;entryDy=0;" parent="1" target="-lzMgy2tLy97nm2jj77K-11" edge="1">
          <mxGeometry width="50" height="50" relative="1" as="geometry">
            <mxPoint x="1030" y="250" as="sourcePoint" />
            <mxPoint x="1080" y="200" as="targetPoint" />
          </mxGeometry>
        </mxCell>
        <mxCell id="-lzMgy2tLy97nm2jj77K-26" value="" style="endArrow=classic;html=1;rounded=0;entryX=0;entryY=0.5;entryDx=0;entryDy=0;" parent="1" target="YCV1o-y9mi9fZgYIoJnW-9" edge="1">
          <mxGeometry width="50" height="50" relative="1" as="geometry">
            <mxPoint x="1120" y="130" as="sourcePoint" />
            <mxPoint x="1170" y="80" as="targetPoint" />
          </mxGeometry>
        </mxCell>
        <mxCell id="QatYPXw6pNrdivkXPcCo-2" value="" style="endArrow=classic;html=1;rounded=0;" parent="1" edge="1">
          <mxGeometry width="50" height="50" relative="1" as="geometry">
            <mxPoint x="470" y="280" as="sourcePoint" />
            <mxPoint x="470" y="320" as="targetPoint" />
          </mxGeometry>
        </mxCell>
      </root>
    </mxGraphModel>
  </diagram>
</mxfile>
